
            <svg
              width="212"
              height="26"
              className="ml-4"
              viewBox="0 0 212 26"
              fill="none"
              xmlns="http://www.w3.org/2000/svg"
            >
              <path
                d="M14.8757 3.71429H3.71893V0H14.8757V3.71429ZM3.71893 11.1429H0V3.71429H3.71893V11.1429ZM14.8757 22.2857H11.1568V14.8571H14.8757V22.2857ZM11.1568 14.8571H3.71893V11.1429H11.1568V14.8571ZM11.1568 26H0V22.2857H11.1568V26Z"
                fill="white"
              />
              <path
                d="M33.4405 26H22.2837V22.2857H18.5647V18.5714H22.2837V14.8571H29.7215V11.1429H22.2837V7.42857H29.7215V11.1429H33.4405V26ZM29.7215 22.2857V18.5714H22.2837V22.2857H29.7215Z"
                fill="white"
              />
              <path
                d="M44.6045 26H40.8856V22.2857H37.1666V0H40.8856V7.42857H44.6045V11.1429H40.8856V22.2857H44.6045V26Z"
                fill="white"
              />
              <path
                d="M59.4657 11.1429H52.0279V7.42857H59.4657V11.1429ZM63.1846 22.2857H59.4657V11.1429H63.1846V22.2857ZM52.0279 22.2857H48.3089V11.1429H52.0279V22.2857ZM59.4657 26H52.0279V22.2857H59.4657V26Z"
                fill="white"
              />
              <path
                d="M81.7866 11.1429H70.6298V7.42857H81.7866V11.1429ZM81.7866 22.2857H78.0676V18.5714H81.7866V22.2857ZM78.0676 18.5714H70.6298V14.8571H78.0676V18.5714ZM70.6298 14.8571H66.9108V11.1429H70.6298V14.8571ZM78.0676 26H66.9108V22.2857H78.0676V26Z"
                fill="white"
              />
              <path
                d="M100.426 26H96.7067V11.1429H89.2689V26H85.5499V0H89.2689V7.42857H96.7067V11.1429H100.426V26Z"
                fill="white"
              />
              <path
                d="M107.945 3.71429H104.226V0H107.945V3.71429ZM107.945 26H104.226V7.42857H107.945V26Z"
                fill="white"
              />
              <path
                d="M137.63 11.1429H133.911V14.8571H126.473V26H122.754V0H133.911V3.71429H137.63V11.1429ZM133.911 11.1429V3.71429H126.473V11.1429H133.911Z"
                fill="white"
              />
              <path
                d="M156.194 7.42857V26H145.037V22.2857H141.319V7.42857H145.037V22.2857H152.475V7.42857H156.194Z"
                fill="white"
              />
              <path
                d="M174.908 25.8886H171.189V11.0314H163.751V25.8886H160.032V7.31714H171.189V11.0314H174.908V25.8886Z"
                fill="white"
              />
              <path
                d="M193.435 26H189.716V18.5714H185.997V14.8571H182.278V26H178.56V0H182.278V11.1429H185.997V7.42857H189.716V3.71429H193.435V7.42857H189.716V11.1429H185.997V14.8571H189.716V18.5714H193.435V26Z"
                fill="white"
              />
              <path
                d="M212 11.1429H200.843V7.42857H212V11.1429ZM212 22.2857H208.281V18.5714H212V22.2857ZM208.281 18.5714H200.843V14.8571H208.281V18.5714ZM200.843 14.8571H197.124V11.1429H200.843V14.8571ZM208.281 26H197.124V22.2857H208.281V26Z"
                fill="white"
              />
            </svg>